<?xml version="1.0" encoding="UTF-8"?>
<!DOCTYPE svg PUBLIC "-//W3C//DTD SVG 1.1//EN" "http://www.w3.org/Graphics/SVG/1.1/DTD/svg11.dtd">
<!-- Creator: CorelDRAW X7 -->
<svg xmlns="http://www.w3.org/2000/svg" xml:space="preserve" width="200.525mm" height="26.9339mm" version="1.1" style="shape-rendering:geometricPrecision; text-rendering:geometricPrecision; image-rendering:optimizeQuality; fill-rule:evenodd; clip-rule:evenodd"
viewBox="0 0 27525 3697"
 xmlns:xlink="http://www.w3.org/1999/xlink">
 <defs>
  <style type="text/css">
   <![CDATA[
    .fil0 {fill:#B2B3B3}
    .fil1 {fill:#727271;fill-rule:nonzero}
   ]]>
  </style>
 </defs>
 <g id="Layer_x0020_1">
  <metadata id="CorelCorpID_0Corel-Layer"/>
  <rect class="fil0" x="153" y="3444" width="27372" height="253"/>
  <path class="fil1" d="M873 1074l337 103c-23,96 -58,175 -107,239 -49,64 -109,113 -181,145 -72,33 -164,49 -275,49 -136,0 -246,-20 -332,-59 -86,-40 -159,-110 -222,-210 -62,-100 -93,-228 -93,-384 0,-207 55,-367 164,-479 110,-111 264,-167 465,-167 156,0 279,32 369,96 90,64 156,162 200,295l-339 76c-12,-38 -24,-66 -37,-84 -22,-29 -48,-52 -79,-68 -31,-16 -66,-24 -104,-24 -88,0 -155,36 -201,106 -35,52 -53,135 -53,247 0,139 21,234 63,286 42,52 101,77 177,77 73,0 129,-20 166,-62 38,-42 65,-102 82,-182zm-472 658l25 -102c54,-13 103,-20 150,-20 97,0 164,17 200,50 37,33 56,72 56,117 0,28 -9,56 -26,85 -16,29 -46,53 -89,71 -43,17 -100,26 -172,26 -64,0 -140,-7 -227,-22l0 -105c59,11 121,17 187,17 49,0 82,-7 99,-20 17,-13 26,-30 26,-51 0,-17 -7,-31 -21,-43 -14,-12 -36,-18 -66,-18 -40,0 -88,5 -142,15zm1098 -1400l385 0 0 1257 -385 0 0 -1257zm61 -332l265 0 0 256 -265 0 0 -256zm657 332l1085 0 0 251 -697 735 723 0 0 271 -1179 0 0 -261 690 -728 -622 0 0 -268zm1996 802l0 -261 593 0 0 534c-113,79 -214,132 -301,160 -87,29 -191,43 -311,43 -147,0 -267,-26 -360,-76 -93,-51 -165,-127 -216,-228 -52,-100 -77,-215 -77,-346 0,-137 28,-256 84,-358 56,-101 137,-178 245,-230 85,-41 198,-61 340,-61 138,0 240,12 308,38 69,25 125,64 170,117 45,52 78,119 101,201l-370 67c-15,-48 -41,-84 -77,-110 -37,-25 -83,-38 -140,-38 -84,0 -151,30 -201,89 -50,59 -75,153 -75,281 0,135 25,233 76,291 50,58 121,87 211,87 43,0 84,-6 123,-18 39,-13 83,-34 134,-64l0 -118 -257 0zm924 -802l385 0 0 1257 -385 0 0 -1257zm61 -332l265 0 0 256 -265 0 0 -256zm1262 332l507 0 193 765 193 -765 505 0 0 1257 -314 0 0 -958 -243 958 -285 0 -242 -958 0 958 -314 0 0 -1257zm2495 1050l-436 0 -62 207 -392 0 468 -1257 420 0 466 1257 -402 0 -62 -207zm-82 -272l-135 -452 -137 452 272 0zm757 -778l383 0 0 475 403 -475 510 0 -453 472 474 785 -472 0 -262 -516 -200 210 0 306 -383 0 0 -1257zm1547 0l386 0 0 1257 -386 0 0 -1257zm61 -332l266 0 0 256 -266 0 0 -256zm690 332l359 0 466 694 0 -694 363 0 0 1257 -363 0 -464 -690 0 690 -361 0 0 -1257zm2278 1050l-435 0 -62 207 -392 0 467 -1257 421 0 466 1257 -402 0 -63 -207zm-81 -272l-136 -452 -136 452 272 0z"/>
  <path class="fil1" d="M15333 1237l0 -904 183 0 0 400 369 -400 245 0 -341 352 359 552 -236 0 -249 -425 -147 151 0 274 -183 0zm1036 -453l-156 -28c17,-64 48,-111 91,-142 43,-31 107,-46 192,-46 77,0 135,9 173,27 38,18 64,42 80,70 15,28 23,79 23,155l-3 202c0,57 3,99 8,127 6,27 16,56 31,88l-171 0c-5,-12 -10,-29 -17,-51 -3,-10 -5,-17 -6,-20 -29,29 -61,51 -95,65 -33,15 -69,22 -107,22 -67,0 -120,-18 -159,-55 -38,-36 -58,-83 -58,-139 0,-36 9,-69 27,-98 17,-29 42,-51 74,-67 32,-15 77,-29 137,-40 81,-15 137,-30 168,-43l0 -17c0,-34 -8,-58 -24,-72 -17,-15 -48,-22 -94,-22 -30,0 -54,6 -72,19 -17,12 -31,34 -42,65zm232 140c-22,7 -57,16 -105,26 -48,10 -79,20 -94,30 -23,16 -34,37 -34,61 0,25 9,45 27,63 18,18 41,27 69,27 31,0 61,-11 89,-31 21,-16 35,-35 42,-58 4,-14 6,-42 6,-84l0 -34zm341 313l0 -904 173 0 0 904 -173 0zm351 0l0 -655 173 0 0 655 -173 0zm345 -655l162 0 0 96c21,-33 49,-60 85,-80 36,-20 75,-30 119,-30 76,0 140,30 193,89 53,60 80,143 80,250 0,109 -27,194 -80,255 -54,61 -118,91 -195,91 -36,0 -69,-7 -98,-22 -29,-14 -60,-39 -93,-74l0 328 -173 0 0 -903zm171 317c0,74 14,128 43,164 29,35 65,52 107,52 40,0 73,-16 100,-48 27,-33 40,-86 40,-159 0,-69 -14,-120 -41,-154 -28,-33 -62,-50 -102,-50 -43,0 -78,16 -105,49 -28,33 -42,82 -42,146zm1160 338l0 -751 -267 0 0 -153 716 0 0 153 -266 0 0 751 -183 0zm602 -453l-157 -28c18,-64 48,-111 91,-142 43,-31 108,-46 193,-46 77,0 134,9 172,27 38,18 65,42 80,70 15,28 23,79 23,155l-2 202c0,57 2,99 8,127 5,27 16,56 31,88l-172 0c-4,-12 -10,-29 -17,-51 -2,-10 -4,-17 -6,-20 -29,29 -61,51 -94,65 -34,15 -70,22 -108,22 -67,0 -120,-18 -159,-55 -38,-36 -58,-83 -58,-139 0,-36 9,-69 27,-98 18,-29 42,-51 74,-67 32,-15 78,-29 138,-40 80,-15 137,-30 168,-43l0 -17c0,-34 -8,-58 -25,-72 -17,-15 -48,-22 -93,-22 -31,0 -55,6 -72,19 -18,12 -32,34 -42,65zm232 140c-22,7 -58,16 -106,26 -48,10 -79,20 -94,30 -22,16 -34,37 -34,61 0,25 9,45 27,63 18,18 41,27 69,27 31,0 61,-11 90,-31 21,-16 34,-35 41,-58 4,-14 7,-42 7,-84l0 -34zm279 128l174 -26c7,33 22,59 45,76 22,17 54,26 95,26 45,0 78,-8 101,-25 15,-11 23,-27 23,-46 0,-13 -5,-24 -13,-33 -8,-8 -28,-16 -58,-23 -139,-31 -228,-59 -265,-84 -52,-36 -78,-85 -78,-148 0,-57 22,-104 67,-143 45,-39 114,-58 208,-58 90,0 156,15 200,44 43,29 74,73 90,130l-163 30c-7,-25 -20,-45 -40,-59 -19,-14 -47,-20 -84,-20 -45,0 -78,6 -98,19 -14,9 -20,21 -20,35 0,12 6,23 17,31 16,12 70,28 163,49 92,21 157,47 193,77 37,31 55,74 55,129 0,60 -25,112 -76,155 -50,43 -124,65 -222,65 -89,0 -160,-18 -212,-54 -52,-36 -86,-85 -102,-147zm892 -268l-156 -28c17,-64 48,-111 91,-142 43,-31 107,-46 192,-46 77,0 135,9 173,27 37,18 64,42 79,70 16,28 23,79 23,155l-2 202c0,57 3,99 8,127 6,27 16,56 31,88l-172 0c-4,-12 -10,-29 -16,-51 -3,-10 -5,-17 -6,-20 -30,29 -61,51 -95,65 -34,15 -69,22 -107,22 -67,0 -120,-18 -159,-55 -39,-36 -58,-83 -58,-139 0,-36 9,-69 26,-98 18,-29 43,-51 75,-67 31,-15 77,-29 137,-40 81,-15 137,-30 168,-43l0 -17c0,-34 -8,-58 -24,-72 -17,-15 -48,-22 -94,-22 -31,0 -55,6 -72,19 -17,12 -31,34 -42,65zm232 140c-22,7 -57,16 -105,26 -48,10 -80,20 -94,30 -23,16 -34,37 -34,61 0,25 9,45 27,63 18,18 41,27 69,27 31,0 61,-11 89,-31 21,-16 35,-35 41,-58 5,-14 7,-42 7,-84l0 -34zm506 313l-173 0 0 -655 161 0 0 93c27,-44 52,-73 74,-87 22,-13 47,-20 75,-20 40,0 78,11 114,32l-53 151c-29,-19 -57,-28 -82,-28 -24,0 -45,7 -61,20 -17,13 -31,37 -40,72 -10,35 -15,108 -15,220l0 202zm326 0l0 -655 173 0 0 655 -173 0zm338 -655l159 0 0 89c57,-69 125,-103 204,-103 42,0 78,8 109,26 31,17 56,43 75,78 29,-35 60,-61 94,-78 33,-18 68,-26 106,-26 48,0 89,9 122,29 33,20 58,48 75,86 12,28 17,73 17,135l0 419 -172 0 0 -374c0,-65 -6,-107 -18,-126 -16,-24 -41,-37 -74,-37 -25,0 -47,8 -69,22 -21,15 -37,37 -46,65 -10,29 -14,74 -14,136l0 314 -173 0 0 -359c0,-63 -3,-105 -9,-123 -6,-18 -16,-32 -29,-41 -13,-9 -30,-14 -52,-14 -27,0 -51,7 -72,22 -22,14 -37,35 -46,62 -10,27 -14,72 -14,135l0 318 -173 0 0 -655zm1480 655l0 -904 183 0 0 904 -183 0zm8 -986l0 -164 170 0 0 164 -170 0zm335 331l159 0 0 89c57,-69 125,-103 204,-103 42,0 78,8 109,26 31,17 56,43 75,78 29,-35 60,-61 94,-78 33,-18 68,-26 106,-26 48,0 89,9 122,29 33,20 58,48 75,86 12,28 18,73 18,135l0 419 -173 0 0 -374c0,-65 -6,-107 -18,-126 -16,-24 -41,-37 -74,-37 -24,0 -47,8 -69,22 -21,15 -37,37 -46,65 -10,29 -14,74 -14,136l0 314 -173 0 0 -359c0,-63 -3,-105 -9,-123 -6,-18 -16,-32 -29,-41 -13,-9 -30,-14 -52,-14 -27,0 -51,7 -72,22 -22,14 -37,35 -46,62 -9,27 -14,72 -14,135l0 318 -173 0 0 -655zm1263 202l-156 -28c17,-64 48,-111 91,-142 43,-31 107,-46 192,-46 77,0 135,9 173,27 38,18 64,42 80,70 15,28 23,79 23,155l-3 202c0,57 3,99 8,127 6,27 16,56 31,88l-171 0c-5,-12 -10,-29 -17,-51 -3,-10 -5,-17 -6,-20 -29,29 -61,51 -95,65 -33,15 -69,22 -107,22 -67,0 -120,-18 -159,-55 -38,-36 -58,-83 -58,-139 0,-36 9,-69 27,-98 17,-29 42,-51 74,-67 32,-15 77,-29 137,-40 81,-15 137,-30 168,-43l0 -17c0,-34 -8,-58 -24,-72 -17,-15 -48,-22 -94,-22 -30,0 -54,6 -72,19 -17,12 -31,34 -42,65zm232 140c-22,7 -57,16 -105,26 -48,10 -79,20 -94,30 -23,16 -34,37 -34,61 0,25 9,45 27,63 18,18 41,27 69,27 31,0 61,-11 89,-31 21,-16 35,-35 42,-58 4,-14 6,-42 6,-84l0 -34zm341 313l0 -904 173 0 0 904 -173 0zm480 -453l-157 -28c18,-64 48,-111 91,-142 44,-31 108,-46 193,-46 77,0 134,9 172,27 38,18 65,42 80,70 15,28 23,79 23,155l-2 202c0,57 2,99 8,127 5,27 16,56 31,88l-172 0c-4,-12 -10,-29 -17,-51 -2,-10 -4,-17 -6,-20 -29,29 -61,51 -94,65 -34,15 -70,22 -108,22 -67,0 -120,-18 -158,-55 -39,-36 -59,-83 -59,-139 0,-36 9,-69 27,-98 18,-29 42,-51 74,-67 32,-15 78,-29 138,-40 80,-15 137,-30 168,-43l0 -17c0,-34 -8,-58 -25,-72 -16,-15 -48,-22 -93,-22 -31,0 -55,6 -72,19 -18,12 -32,34 -42,65zm232 140c-22,7 -57,16 -106,26 -48,10 -79,20 -94,30 -22,16 -34,37 -34,61 0,25 9,45 27,63 19,18 41,27 69,27 32,0 61,-11 90,-31 21,-16 35,-35 41,-58 4,-14 7,-42 7,-84l0 -34zm640 -342l0 137 -119 0 0 265c0,54 1,86 3,94 3,9 8,17 16,22 8,6 18,9 29,9 16,0 40,-5 70,-17l15 135c-41,17 -86,26 -137,26 -31,0 -59,-5 -84,-16 -25,-10 -43,-24 -55,-41 -12,-16 -20,-39 -24,-68 -4,-20 -6,-61 -6,-122l0 -287 -79 0 0 -137 79 0 0 -130 173 -102 0 232 119 0z"/>
  <path class="fil1" d="M1460 2800l0 -845 256 0 151 576 150 -576 257 0 0 845 -158 0 -1 -665 -166 665 -165 0 -166 -665 0 665 -158 0zm1338 -194l162 28c-20,59 -53,104 -98,135 -45,31 -101,46 -168,46 -106,0 -185,-34 -236,-104 -41,-56 -61,-126 -61,-212 0,-101 27,-181 80,-238 52,-58 120,-87 201,-87 91,0 162,30 215,91 53,60 78,152 75,276l-404 0c1,48 14,86 39,113 24,26 56,40 93,40 25,0 46,-7 63,-21 18,-14 31,-36 39,-67zm10 -164c-1,-47 -13,-83 -36,-107 -23,-25 -51,-37 -84,-37 -36,0 -65,13 -88,39 -23,26 -34,61 -34,105l242 0zm235 186l163 -25c7,31 21,55 42,71 21,16 51,24 89,24 42,0 73,-7 95,-23 14,-10 21,-25 21,-43 0,-12 -4,-22 -12,-31 -8,-7 -26,-15 -54,-21 -131,-29 -214,-55 -249,-79 -48,-33 -73,-79 -73,-138 0,-54 22,-98 63,-134 42,-37 107,-55 195,-55 84,0 146,14 187,41 41,28 69,68 84,122l-152 29c-6,-24 -19,-43 -37,-56 -19,-13 -45,-19 -79,-19 -43,0 -73,6 -92,18 -12,8 -19,20 -19,33 0,12 6,21 17,29 14,11 65,26 152,46 86,20 147,44 181,72 34,29 51,69 51,121 0,56 -24,104 -71,145 -47,40 -116,60 -208,60 -84,0 -150,-17 -198,-50 -49,-34 -81,-79 -96,-137zm715 172l0 -845 161 0 0 845 -161 0zm682 -194l162 28c-21,59 -54,104 -99,135 -44,31 -101,46 -168,46 -106,0 -185,-34 -236,-104 -40,-56 -61,-126 -61,-212 0,-101 27,-181 80,-238 53,-58 120,-87 201,-87 91,0 163,30 215,91 53,60 78,152 76,276l-405 0c1,48 14,86 39,113 25,26 56,40 93,40 25,0 47,-7 64,-21 17,-14 30,-36 39,-67zm9 -164c-1,-47 -13,-83 -36,-107 -23,-25 -51,-37 -84,-37 -35,0 -64,13 -87,39 -23,26 -35,61 -34,105l241 0zm287 358l0 -845 162 0 0 448 190 -216 199 0 -209 224 224 389 -174 0 -155 -276 -75 80 0 196 -162 0zm663 -695l0 -150 162 0 0 150 -162 0zm0 695l0 -613 162 0 0 613 -162 0zm657 0l0 -845 626 0 0 142 -455 0 0 188 423 0 0 143 -423 0 0 229 471 0 0 143 -642 0zm771 39l186 22c3,22 10,37 21,45 15,12 40,18 73,18 42,0 74,-6 95,-19 14,-9 25,-22 32,-41 5,-13 8,-38 8,-74l0 -90c-48,67 -110,100 -184,100 -82,0 -147,-35 -195,-104 -38,-55 -57,-124 -57,-205 0,-103 25,-181 74,-235 50,-55 111,-82 185,-82 75,0 138,33 187,100l0 -87 151 0 0 550c0,72 -6,126 -18,162 -11,35 -28,63 -50,84 -21,20 -50,36 -86,48 -36,11 -81,17 -136,17 -104,0 -178,-18 -221,-54 -44,-35 -65,-80 -65,-135 0,-6 0,-12 0,-20zm145 -358c0,65 13,113 38,143 25,30 56,45 93,45 39,0 73,-16 100,-46 27,-31 41,-77 41,-138 0,-63 -13,-110 -39,-141 -26,-30 -59,-46 -99,-46 -39,0 -71,15 -96,45 -25,31 -38,76 -38,138zm243 -541l79 0c-4,53 -23,94 -55,123 -32,30 -74,45 -125,45 -51,0 -92,-15 -124,-45 -32,-29 -51,-70 -55,-123l79 0c3,28 12,48 28,62 17,14 41,21 72,21 32,0 56,-7 72,-21 17,-14 26,-34 29,-62zm349 165l0 -150 162 0 0 150 -162 0zm0 695l0 -613 162 0 0 613 -162 0zm608 -613l0 129 -111 0 0 248c0,50 1,80 3,88 2,8 7,15 14,21 8,5 17,8 28,8 15,0 36,-5 65,-16l14 126c-38,16 -80,24 -128,24 -29,0 -55,-5 -79,-14 -23,-10 -40,-23 -51,-39 -11,-15 -19,-36 -23,-63 -3,-19 -5,-57 -5,-115l0 -268 -75 0 0 -129 75 0 0 -121 162 -96 0 217 111 0zm113 -82l0 -150 162 0 0 150 -162 0zm0 695l0 -613 162 0 0 613 -162 0zm316 -613l149 0 0 84c53,-64 117,-97 191,-97 39,0 73,8 102,24 29,17 52,41 70,74 27,-33 56,-57 88,-74 31,-16 64,-24 99,-24 45,0 83,9 115,28 31,18 54,45 69,80 11,26 17,68 17,127l0 391 -162 0 0 -350c0,-60 -5,-100 -17,-117 -15,-23 -38,-35 -69,-35 -22,0 -44,7 -64,21 -20,14 -34,34 -43,61 -9,26 -14,69 -14,126l0 294 -161 0 0 -335c0,-60 -3,-98 -9,-115 -6,-18 -14,-31 -27,-39 -12,-9 -28,-13 -49,-13 -25,0 -47,7 -67,20 -20,14 -34,33 -43,59 -9,25 -13,67 -13,126l0 297 -162 0 0 -613zm1558 613l-247 -613 170 0 116 313 33 104c9,-26 15,-44 17,-52 5,-17 11,-35 17,-52l117 -313 167 0 -244 613 -146 0zm843 -194l161 28c-20,59 -53,104 -98,135 -45,31 -101,46 -168,46 -106,0 -185,-34 -236,-104 -40,-56 -61,-126 -61,-212 0,-101 27,-181 80,-238 53,-58 120,-87 201,-87 91,0 163,30 215,91 53,60 78,152 76,276l-405 0c1,48 14,86 39,113 25,26 56,40 93,40 25,0 46,-7 64,-21 17,-14 30,-36 39,-67zm9 -164c-1,-47 -13,-83 -36,-107 -23,-25 -51,-37 -84,-37 -35,0 -64,13 -87,39 -23,26 -35,61 -34,105l241 0zm812 358l0 -703 -250 0 0 -142 671 0 0 142 -249 0 0 703 -172 0zm797 -194l162 28c-21,59 -54,104 -98,135 -45,31 -101,46 -168,46 -107,0 -186,-34 -237,-104 -40,-56 -60,-126 -60,-212 0,-101 26,-181 79,-238 53,-58 120,-87 201,-87 91,0 163,30 216,91 52,60 77,152 75,276l-405 0c1,48 14,86 39,113 25,26 56,40 93,40 26,0 47,-7 64,-21 17,-14 30,-36 39,-67zm10 -164c-2,-47 -14,-83 -37,-107 -23,-25 -51,-37 -84,-37 -35,0 -64,13 -87,39 -23,26 -34,61 -34,105l242 0zm287 358l0 -845 161 0 0 448 190 -216 199 0 -209 224 225 389 -175 0 -155 -276 -75 80 0 196 -161 0zm1219 0l-161 0 0 -312c0,-66 -4,-109 -11,-128 -7,-20 -18,-35 -34,-46 -15,-10 -34,-16 -56,-16 -29,0 -54,8 -77,23 -22,16 -38,36 -46,61 -8,26 -12,72 -12,141l0 277 -162 0 0 -613 150 0 0 90c53,-69 121,-103 203,-103 35,0 68,7 98,20 30,13 52,29 68,49 15,20 26,42 31,68 6,25 9,61 9,109l0 380zm127 -314c0,-54 13,-106 39,-156 27,-51 65,-89 113,-116 49,-26 103,-40 163,-40 93,0 168,30 228,91 59,60 88,136 88,228 0,93 -30,170 -89,231 -60,61 -135,91 -226,91 -56,0 -110,-12 -161,-38 -50,-25 -89,-62 -116,-112 -26,-49 -39,-108 -39,-179zm166 9c0,61 14,107 43,140 29,32 65,48 107,48 42,0 77,-16 106,-48 28,-33 43,-80 43,-141 0,-60 -15,-107 -43,-139 -29,-32 -64,-48 -106,-48 -42,0 -78,16 -107,48 -29,32 -43,79 -43,140zm593 305l0 -845 161 0 0 845 -161 0zm290 -314c0,-54 13,-106 40,-156 26,-51 64,-89 112,-116 49,-26 103,-40 163,-40 93,0 169,30 228,91 59,60 89,136 89,228 0,93 -30,170 -90,231 -60,61 -135,91 -226,91 -56,0 -109,-12 -160,-38 -51,-25 -90,-62 -116,-112 -27,-49 -40,-108 -40,-179zm166 9c0,61 15,107 44,140 28,32 64,48 106,48 42,0 78,-16 106,-48 29,-33 43,-80 43,-141 0,-60 -14,-107 -43,-139 -28,-32 -64,-48 -106,-48 -42,0 -78,16 -106,48 -29,32 -44,79 -44,140zm589 -390l0 -150 162 0 0 150 -162 0zm162 82l0 594c0,77 -5,133 -15,165 -10,32 -30,57 -59,75 -29,18 -66,27 -111,27 -16,0 -33,-1 -52,-4 -19,-3 -39,-7 -60,-13l27 -138c8,1 15,3 22,4 7,1 13,1 19,1 17,0 30,-4 41,-11 11,-7 18,-15 21,-25 4,-10 5,-40 5,-90l0 -585 162 0zm170 -82l0 -150 162 0 0 150 -162 0zm0 695l0 -613 162 0 0 613 -162 0zm328 0l0 -845 162 0 0 845 -162 0zm682 -194l162 28c-21,59 -54,104 -98,135 -45,31 -101,46 -168,46 -107,0 -186,-34 -237,-104 -40,-56 -60,-126 -60,-212 0,-101 26,-181 79,-238 53,-58 120,-87 201,-87 91,0 163,30 216,91 52,60 78,152 75,276l-405 0c1,48 14,86 39,113 25,26 56,40 93,40 26,0 47,-7 64,-21 17,-14 30,-36 39,-67zm10 -164c-2,-47 -13,-83 -37,-107 -23,-25 -50,-37 -84,-37 -35,0 -64,13 -87,39 -23,26 -34,61 -34,105l242 0zm447 358l-161 0 0 -613 150 0 0 87c25,-41 49,-68 69,-81 21,-12 44,-19 70,-19 37,0 73,10 107,31l-50 141c-27,-18 -53,-27 -76,-27 -23,0 -42,7 -58,19 -16,13 -28,35 -37,68 -9,33 -14,101 -14,205l0 189zm305 -695l0 -150 162 0 0 150 -162 0zm0 695l0 -613 162 0 0 613 -162 0zm941 -274l166 -16c10,55 30,96 61,122 30,26 71,39 123,39 55,0 96,-11 124,-34 28,-24 42,-51 42,-82 0,-20 -6,-37 -18,-51 -12,-14 -32,-26 -61,-37 -20,-7 -65,-19 -136,-37 -91,-22 -155,-50 -192,-84 -52,-46 -78,-103 -78,-170 0,-43 13,-84 37,-121 24,-38 59,-66 105,-86 46,-20 101,-30 166,-30 106,0 185,24 239,71 53,47 81,109 84,188l-171 6c-8,-44 -23,-75 -47,-94 -24,-19 -60,-29 -107,-29 -49,0 -88,10 -116,31 -18,13 -27,30 -27,52 0,20 9,38 26,52 21,18 73,37 156,57 83,19 144,40 184,60 40,22 71,50 93,86 23,37 34,82 34,135 0,48 -14,94 -41,136 -27,43 -65,74 -114,94 -49,21 -110,31 -184,31 -107,0 -189,-24 -246,-74 -57,-49 -91,-121 -102,-215zm951 -150l-146 -26c16,-60 45,-104 85,-133 41,-28 101,-43 180,-43 72,0 126,9 162,26 35,17 60,39 74,65 15,26 22,75 22,145l-2 189c0,54 2,93 7,119 5,26 15,53 29,82l-160 0c-5,-11 -10,-26 -16,-47 -3,-10 -5,-16 -6,-19 -27,27 -57,47 -88,61 -32,13 -65,20 -101,20 -63,0 -112,-17 -148,-51 -37,-34 -55,-77 -55,-130 0,-34 9,-65 25,-92 17,-27 40,-48 70,-62 29,-15 72,-27 128,-38 76,-14 128,-28 157,-40l0 -16c0,-32 -7,-54 -23,-68 -15,-13 -44,-20 -87,-20 -29,0 -51,6 -67,18 -17,11 -30,31 -40,60zm217 131c-20,7 -53,15 -98,25 -45,10 -74,19 -88,28 -21,15 -32,34 -32,57 0,23 9,43 25,59 17,17 39,25 65,25 29,0 57,-10 84,-29 19,-15 32,-32 38,-54 4,-13 6,-40 6,-78l0 -33zm877 293l-162 0 0 -312c0,-66 -4,-109 -10,-128 -8,-20 -19,-35 -34,-46 -16,-10 -35,-16 -57,-16 -28,0 -54,8 -76,23 -23,16 -38,36 -47,61 -8,26 -12,72 -12,141l0 277 -162 0 0 -613 150 0 0 90c54,-69 121,-103 203,-103 36,0 69,7 98,20 30,13 53,29 68,49 15,20 26,42 32,68 6,25 9,61 9,109l0 380zm163 0l0 -162 161 0 0 162 -161 0zm520 0l0 -703 -250 0 0 -142 670 0 0 142 -249 0 0 703 -171 0zm509 -695l0 -150 161 0 0 150 -161 0zm0 695l0 -613 161 0 0 613 -161 0zm861 -431l-159 28c-5,-31 -17,-55 -37,-71 -19,-16 -43,-24 -74,-24 -40,0 -72,14 -96,42 -24,28 -36,74 -36,140 0,73 12,124 36,154 25,30 57,45 98,45 31,0 56,-9 76,-26 19,-18 33,-48 41,-91l160 27c-17,74 -49,129 -95,166 -47,38 -110,56 -189,56 -89,0 -161,-28 -214,-84 -53,-57 -80,-135 -80,-236 0,-101 27,-180 80,-236 54,-57 126,-85 217,-85 74,0 134,16 178,48 44,33 75,81 94,147zm122 431l0 -162 162 0 0 162 -162 0zm335 0l0 -838 172 0 0 695 423 0 0 143 -595 0zm996 -613l0 129 -111 0 0 248c0,50 0,80 3,88 2,8 7,15 14,21 8,5 17,8 28,8 15,0 36,-5 65,-16l13 126c-37,16 -80,24 -127,24 -29,0 -55,-5 -79,-14 -23,-10 -40,-23 -51,-39 -11,-15 -19,-36 -23,-63 -3,-19 -5,-57 -5,-115l0 -268 -75 0 0 -129 75 0 0 -121 162 -96 0 217 111 0zm675 613l-150 0 0 -90c-25,35 -55,61 -89,79 -34,18 -68,26 -103,26 -71,0 -131,-28 -181,-85 -51,-57 -76,-136 -76,-238 0,-103 25,-183 74,-237 49,-54 110,-81 185,-81 69,0 128,29 178,86l0 -305 162 0 0 845zm-432 -318c0,65 9,113 27,142 26,43 62,64 109,64 37,0 69,-16 95,-48 26,-32 39,-79 39,-143 0,-70 -13,-121 -38,-152 -25,-31 -58,-47 -97,-47 -38,0 -71,16 -97,46 -25,31 -38,77 -38,138zm590 318l0 -162 162 0 0 162 -162 0zm285 -274l167 -16c10,55 30,96 61,122 30,26 71,39 123,39 55,0 96,-11 124,-34 27,-24 41,-51 41,-82 0,-20 -6,-37 -17,-51 -12,-14 -32,-26 -61,-37 -20,-7 -65,-19 -136,-37 -91,-22 -155,-50 -192,-84 -52,-46 -78,-103 -78,-170 0,-43 13,-84 37,-121 24,-38 59,-66 105,-86 46,-20 101,-30 166,-30 106,0 185,24 239,71 53,47 81,109 84,188l-171 6c-8,-44 -23,-75 -47,-94 -24,-19 -60,-29 -107,-29 -49,0 -88,10 -116,31 -18,13 -27,30 -27,52 0,20 9,38 26,52 21,18 73,37 156,57 83,19 144,40 184,60 39,22 71,50 93,86 22,37 34,82 34,135 0,48 -14,94 -41,136 -27,43 -65,74 -114,94 -49,21 -110,31 -184,31 -107,0 -189,-24 -246,-74 -57,-49 -91,-121 -103,-215zm183 500l0 -68c40,4 76,6 109,6 35,0 60,-6 77,-18 12,-10 19,-21 19,-36 0,-13 -6,-25 -18,-34 -12,-10 -31,-15 -56,-15 -25,0 -50,4 -76,12l15 -57c30,-11 63,-16 97,-16 49,0 85,11 110,32 25,21 37,47 37,77 0,34 -13,61 -41,83 -37,29 -91,43 -161,43 -49,0 -87,-3 -112,-9zm929 -839l0 129 -111 0 0 248c0,50 0,80 3,88 2,8 7,15 14,21 8,5 17,8 28,8 15,0 36,-5 65,-16l13 126c-37,16 -80,24 -127,24 -29,0 -56,-5 -79,-14 -23,-10 -40,-23 -51,-39 -11,-15 -19,-36 -23,-63 -3,-19 -5,-57 -5,-115l0 -268 -75 0 0 -129 75 0 0 -121 162 -96 0 217 111 0zm113 -82l0 -150 162 0 0 150 -162 0zm0 695l0 -613 162 0 0 613 -162 0zm327 0l0 -162 161 0 0 162 -161 0z"/>
 </g>
</svg>
