<?xml version="1.0" encoding="UTF-8" standalone="no"?>
<!-- Creator: CorelDRAW X7 -->

<svg
   xmlns:dc="http://purl.org/dc/elements/1.1/"
   xmlns:cc="http://creativecommons.org/ns#"
   xmlns:rdf="http://www.w3.org/1999/02/22-rdf-syntax-ns#"
   xmlns:svg="http://www.w3.org/2000/svg"
   xmlns="http://www.w3.org/2000/svg"
   xmlns:sodipodi="http://sodipodi.sourceforge.net/DTD/sodipodi-0.dtd"
   xmlns:inkscape="http://www.inkscape.org/namespaces/inkscape"
   xml:space="preserve"
   width="58.119411mm"
   height="58.119411mm"
   version="1.1"
   style="clip-rule:evenodd;fill-rule:evenodd;image-rendering:optimizeQuality;shape-rendering:geometricPrecision;text-rendering:geometricPrecision"
   viewBox="0 0 5746.766 5746.4609"
   id="svg54"
   sodipodi:docname="logo_front.svg"
   inkscape:version="0.92.3 (2405546, 2018-03-11)"><metadata
   id="metadata58"><rdf:RDF><cc:Work
       rdf:about=""><dc:format>image/svg+xml</dc:format><dc:type
         rdf:resource="http://purl.org/dc/dcmitype/StillImage" /><dc:title></dc:title></cc:Work></rdf:RDF></metadata><sodipodi:namedview
   pagecolor="#ffffff"
   bordercolor="#666666"
   borderopacity="1"
   objecttolerance="10"
   gridtolerance="10"
   guidetolerance="10"
   inkscape:pageopacity="0"
   inkscape:pageshadow="2"
   inkscape:window-width="1842"
   inkscape:window-height="1057"
   id="namedview56"
   showgrid="false"
   fit-margin-top="5"
   fit-margin-left="5"
   fit-margin-right="5"
   fit-margin-bottom="5"
   inkscape:zoom="0.71816239"
   inkscape:cx="-234.66709"
   inkscape:cy="-3.1034179"
   inkscape:window-x="70"
   inkscape:window-y="-8"
   inkscape:window-maximized="1"
   inkscape:current-layer="Layer_x0020_1" />
 <defs
   id="defs4">
  <style
   type="text/css"
   id="style2">
   <![CDATA[
    .str0 {stroke:#2B2A29;stroke-width:99.8371}
    .fil2 {fill:none}
    .fil4 {fill:#FEFEFE}
    .fil3 {fill:#D9DADA}
    .fil0 {fill:#B2B3B3}
    .fil5 {fill:#2B2A29}
    .fil6 {fill:#00A0E3}
    .fil1 {fill:#727271;fill-rule:nonzero}
    .fil7 {fill:#2B2A29;fill-rule:nonzero}
    .fil8 {fill:#00A0E3;fill-rule:nonzero}
   ]]>
  </style>
 </defs>
 <g
   id="Layer_x0020_1"
   transform="translate(494.31155,494.1435)">
  <metadata
   id="CorelCorpID_0Corel-Layer" />
  
  
  <g
   id="_638021840"
   transform="matrix(0.89086783,0,0,0.89086783,0.00888897,0.00888897)">
   <g
   id="g14">
    <path
   class="fil2 str0"
   d="m 2883,360 c 73,6 145,15 215,28 l 160,-273 214,57 2,317 c 69,25 137,53 203,85 l 222,-220 193,111 -80,304 c 61,42 119,87 176,135 l 269,-153 157,157 -154,270 c 48,57 94,117 137,178 l 296,-77 111,192 -216,218 c 32,69 61,139 87,211 l 303,1 57,215 -263,154 c 13,74 23,150 28,227 l 291,79 v 223 l -293,80 c -7,77 -18,152 -32,227 l 260,152 -57,214 -306,2 c -27,71 -57,141 -90,209 l 214,216 -111,193 -299,-79 c -44,61 -90,120 -139,176 l 152,268 -157,157 -272,-155 c -57,47 -116,91 -177,133 l 79,301 -193,111 -224,-222 c -67,30 -135,58 -204,82 l -2,314 -215,57 -161,-276 c -71,12 -142,20 -215,25 l -84,307 h -222 l -86,-312 c -71,-7 -141,-18 -211,-31 l -163,278 -214,-57 -2,-329 c -65,-25 -129,-53 -192,-83 l -233,230 -192,-111 84,-324 c -55,-40 -109,-82 -160,-127 L 884,4590 727,4433 895,4139 c -43,-52 -84,-106 -122,-162 l -325,86 -111,-193 239,-241 c -28,-61 -53,-124 -76,-187 l -336,-2 -58,-215 294,-171 c -11,-66 -19,-133 -25,-200 L 50,2765 v -222 l 328,-90 c 7,-67 16,-134 28,-200 l -291,-170 57,-214 340,-2 c 24,-63 50,-125 78,-186 l -236,-239 111,-192 328,85 c 39,-55 80,-108 124,-160 L 751,884 908,727 1200,894 c 52,-44 107,-86 163,-125 l -84,-321 192,-111 235,233 c 63,-30 128,-57 194,-81 l 1,-325 215,-58 164,281 c 70,-12 140,-21 212,-27 l 84,-310 h 222 z"
   id="path11"
   inkscape:connector-curvature="0"
   style="fill:none;stroke:#2b2a29;stroke-width:99.83709717" />
    <path
   id="1"
   class="fil3"
   d="m 2883,360 c 73,6 145,15 215,28 l 160,-273 214,57 2,317 c 69,25 137,53 203,85 l 222,-220 193,111 -80,304 c 61,42 119,87 176,135 l 269,-153 157,157 -154,270 c 48,57 94,117 137,178 l 296,-77 111,192 -216,218 c 32,69 61,139 87,211 l 303,1 57,215 -263,154 c 13,74 23,150 28,227 l 291,79 v 223 l -293,80 c -7,77 -18,152 -32,227 l 260,152 -57,214 -306,2 c -27,71 -57,141 -90,209 l 214,216 -111,193 -299,-79 c -44,61 -90,120 -139,176 l 152,268 -157,157 -272,-155 c -57,47 -116,91 -177,133 l 79,301 -193,111 -224,-222 c -67,30 -135,58 -204,82 l -2,314 -215,57 -161,-276 c -71,12 -142,20 -215,25 l -84,307 h -222 l -86,-312 c -71,-7 -141,-18 -211,-31 l -163,278 -214,-57 -2,-329 c -65,-25 -129,-53 -192,-83 l -233,230 -192,-111 84,-324 c -55,-40 -109,-82 -160,-127 L 884,4590 727,4433 895,4139 c -43,-52 -84,-106 -122,-162 l -325,86 -111,-193 239,-241 c -28,-61 -53,-124 -76,-187 l -336,-2 -58,-215 294,-171 c -11,-66 -19,-133 -25,-200 L 50,2765 v -222 l 328,-90 c 7,-67 16,-134 28,-200 l -291,-170 57,-214 340,-2 c 24,-63 50,-125 78,-186 l -236,-239 111,-192 328,85 c 39,-55 80,-108 124,-160 L 751,884 908,727 1200,894 c 52,-44 107,-86 163,-125 l -84,-321 192,-111 235,233 c 63,-30 128,-57 194,-81 l 1,-325 215,-58 164,281 c 70,-12 140,-21 212,-27 l 84,-310 h 222 z"
   inkscape:connector-curvature="0"
   style="fill:#d9dada" />
   </g>
   <path
   class="fil4"
   d="m 2574,1200 -1016,-183 -92,47 -567,497 -88,13 v 922 l 310,518 523,87 373,11 v -363 l -419,-132 c 0,0 -46,-6 -46,-115 0,-110 6,-899 6,-899 l 97,-244 925,-6 z"
   id="path16"
   inkscape:connector-curvature="0"
   style="fill:#fefefe" />
   <path
   class="fil5"
   d="m 2687,1107 -1161,-205 -87,39 -687,567 v 987 l 316,613 565,114 487,7 c 0,0 34,21 32,46 -2,25 -2,225 -4,242 -3,16 -58,96 -55,193 2,96 4,338 2,372 -2,35 9,83 -9,99 -19,16 -35,115 2,129 37,14 41,32 34,73 -7,42 0,88 71,125 71,36 104,66 99,101 -5,34 -85,234 142,227 227,-7 129,-202 129,-202 0,0 -17,-90 16,-101 32,-12 107,-14 133,-97 25,-82 -3,-92 25,-112 27,-21 46,-65 43,-113 -2,-48 -25,-67 -36,-76 -12,-9 -3,-445 -6,-484 -5,-64 -46,-91 -79,-157 -10,-22 -28,-68 -28,-102 0,-59 -2,-170 9,-172 12,-2 81,2 81,2 l 2,-476 c 0,0 12,-27 -13,-44 -24,-17 -69,-45 -69,-45 h -527 c 0,0 -283,-90 -341,-113 -58,-23 -77,-17 -77,-109 0,-92 4,-765 4,-809 0,-43 9,-116 88,-120 79,-4 450,-7 450,-7 h 462 z"
   id="path18"
   inkscape:connector-curvature="0"
   style="fill:#2b2a29" />
   <rect
   class="fil6"
   x="2123"
   y="2754"
   width="510"
   height="374"
   id="rect20"
   style="fill:#00a0e3" />
   <rect
   class="fil6"
   x="2216"
   y="3227"
   width="328"
   height="213"
   id="rect22"
   style="fill:#00a0e3" />
   <rect
   class="fil6"
   x="2156"
   y="3667"
   width="495"
   height="464"
   id="rect24"
   style="fill:#00a0e3" />
   <path
   class="fil6"
   d="m 2620,4352 c 73,0 -123,131 -209,135 -162,8 -270,-143 -234,-141 147,10 295,6 443,6 z"
   id="path26"
   inkscape:connector-curvature="0"
   style="fill:#00a0e3" />
   <path
   class="fil6"
   d="m 2625,1167 -1074,-201 -92,46 -598,530 v 922 l 311,518 522,86 328,12 v -363 l -374,-133 c 0,0 -46,-5 -46,-115 0,-109 6,-898 6,-898 l 98,-173 925,-6 z"
   id="path28"
   inkscape:connector-curvature="0"
   style="fill:#00a0e3" />
   <path
   class="fil4"
   d="m 1177,1454 h 249 c 82,0 150,65 150,145 v 761 c 0,80 -68,145 -150,145 h -249 c -82,0 -150,-65 -150,-145 v -761 c 0,-80 68,-145 150,-145 z"
   id="path30"
   inkscape:connector-curvature="0"
   style="fill:#fefefe" />
   <rect
   class="fil5"
   x="2230"
   y="1755"
   width="289"
   height="910"
   rx="27"
   ry="27"
   id="rect32"
   style="fill:#2b2a29" />
   <rect
   class="fil6"
   x="2285"
   y="1796"
   width="179"
   height="840"
   id="rect34"
   style="fill:#00a0e3" />
   <polygon
   class="fil5"
   points="2232,1475 2514,1475 2514,1672 2232,1672 "
   id="polygon36"
   style="fill:#2b2a29" />
   <rect
   class="fil6"
   x="2276"
   y="1518"
   width="190"
   height="111"
   id="rect38"
   style="fill:#00a0e3" />
   <g
   id="g44">
    <path
   class="fil7"
   d="m 2735,2586 422,-810 80,36 -422,810 -40,24 z m 80,36 c -11,21 -38,29 -60,19 -22,-10 -31,-34 -20,-55 z m 97,24 h -137 v -83 h 137 v 0 z m 119,-95 32,77 h 1 l -4,1 -4,2 -3,1 -4,1 -4,1 -4,1 -3,1 h -4 l -4,1 -5,1 -4,1 h -4 l -4,1 -5,1 h -4 l -5,1 h -5 l -5,1 h -5 -5 l -5,1 h -5 -5 l -6,1 h -5 -6 -5 -6 l -6,1 h -6 -6 -6 v -83 h 5 6 5 l 6,-1 h 5 5 5 5 5 l 5,-1 h 4 4 l 5,-1 h 4 4 l 4,-1 h 3 l 4,-1 h 4 l 3,-1 h 3 l 3,-1 h 3 l 3,-1 h 2 l 3,-1 h 2 l 2,-1 h 2 l 2,-1 1,-1 z m 0,0 c 22,-9 48,2 57,23 9,21 -2,46 -24,54 z m 88,-69 73,47 v 0 l -3,4 -4,5 -3,4 -3,4 -4,4 -3,4 -4,4 -3,3 -4,4 -4,4 -4,3 -3,4 -4,3 -4,4 -4,3 -4,3 -4,3 -4,3 -4,3 -5,3 -4,3 -4,2 -5,3 -4,3 -5,2 -4,2 -5,2 -4,3 -5,2 -5,2 -4,1 -5,2 -32,-77 3,-1 3,-2 3,-1 3,-1 3,-2 3,-1 3,-1 3,-2 3,-2 3,-1 3,-2 2,-2 3,-2 3,-2 3,-2 2,-2 3,-2 3,-2 3,-3 2,-2 3,-2 3,-3 2,-2 3,-3 3,-3 2,-3 3,-3 2,-3 3,-3 2,-3 3,-3 z m 0,0 c 14,-19 42,-24 62,-11 20,13 25,39 11,58 z m 100,-182 v 83 l 43,-35 -1,7 -1,6 -1,7 -2,7 -1,6 -2,7 -1,6 -2,6 -2,6 -1,7 -2,6 -2,6 -2,6 -2,5 -2,6 -2,6 -3,6 -2,5 -2,6 -3,5 -2,5 -3,6 -2,5 -3,5 -3,5 -3,5 -2,5 -3,5 -4,4 -3,5 -3,5 -3,4 -73,-47 3,-4 2,-3 2,-3 3,-4 2,-3 2,-4 2,-4 2,-4 2,-3 2,-4 2,-5 2,-4 2,-4 2,-4 2,-5 2,-4 1,-5 2,-5 2,-4 1,-5 2,-5 1,-5 2,-6 1,-5 2,-5 1,-6 1,-5 2,-6 1,-5 1,-6 1,-6 1,-6 z m -44,35 c 4,-23 27,-38 51,-35 24,4 40,25 36,48 z m 64,48 h -20 v -83 h 20 l 44,45 z m 0,-83 c 25,0 45,18 45,41 0,23 -20,42 -45,42 z m -73,348 29,-310 88,7 -29,311 -44,38 z m 88,8 c -2,23 -23,39 -48,37 -24,-2 -42,-22 -40,-45 z m -701,-45 h 657 v 83 h -657 l -40,-60 z m 0,83 c -25,0 -45,-19 -45,-42 0,-23 20,-41 45,-41 z m 462,-835 -423,811 -79,-36 423,-812 40,-23 z m -79,-37 c 11,-20 37,-29 59,-19 22,10 31,35 20,56 z m -67,-23 h 107 v 83 h -107 v 0 z m -72,86 -20,-80 v 0 l 2,-1 h 2 l 2,-1 h 2 3 l 2,-1 h 2 2 3 l 2,-1 h 3 2 3 2 l 3,-1 h 3 3 3 3 3 3 l 3,-1 h 3 4 3 3 4 4 3 4 4 4 v 83 h -4 -3 -4 -3 -4 -3 -3 -3 -3 -3 -3 l -3,1 h -3 -2 -3 -2 -2 -2 -2 l -2,1 h -2 -2 -2 -1 -1 l -2,1 h -1 -1 -1 v 0 h -1 v 0 z m 1,0 c -24,6 -48,-8 -54,-30 -5,-22 9,-45 33,-50 z m -53,25 -55,-65 v 0 l 3,-2 2,-2 2,-1 3,-2 3,-2 2,-2 3,-1 2,-2 3,-1 3,-2 2,-1 3,-2 3,-1 2,-1 3,-2 3,-1 2,-1 3,-2 3,-1 3,-1 3,-1 2,-1 3,-1 3,-1 3,-1 3,-1 3,-1 3,-1 h 2 l 3,-1 3,-1 h 3 l 20,80 -1,1 h -2 l -2,1 h -1 l -2,1 h -2 l -1,1 h -2 l -2,1 h -1 l -2,1 -2,1 h -1 l -2,1 -2,1 h -1 l -2,1 -1,1 -2,1 -2,1 h -1 l -2,1 -2,1 -1,1 -2,1 -1,1 -2,1 -2,1 -1,1 -2,2 -1,1 z m 0,0 c -19,14 -47,11 -62,-7 -15,-18 -12,-44 7,-58 z m -42,51 -79,-37 v 0 l 1,-3 2,-3 2,-3 1,-3 2,-3 2,-2 2,-3 1,-3 2,-3 2,-2 2,-3 2,-3 2,-2 2,-3 2,-2 2,-3 2,-2 2,-3 2,-2 2,-2 3,-3 2,-2 2,-2 2,-2 3,-3 2,-2 2,-2 3,-2 2,-2 3,-2 2,-2 3,-2 55,65 -1,1 -2,1 -1,1 -2,2 -1,1 -2,1 -1,1 -2,2 -1,1 -1,2 -2,1 -1,1 -1,2 -2,1 -1,2 -2,2 -1,1 -1,2 -1,1 -2,2 -1,2 -1,1 -1,2 -2,2 -1,2 -1,2 -1,2 -1,2 -2,2 -1,2 -1,2 z m -73,125 v -83 l -44,34 1,-4 1,-4 1,-4 1,-4 1,-4 1,-4 1,-4 1,-4 1,-4 1,-3 1,-4 1,-4 1,-3 1,-4 1,-4 1,-3 1,-4 1,-3 2,-4 1,-3 1,-3 1,-4 2,-3 1,-3 2,-4 1,-3 1,-3 2,-3 1,-3 2,-3 1,-3 2,-3 79,37 -1,2 -1,2 -1,2 -1,3 -1,2 -1,2 -1,3 -2,2 -1,3 -1,2 -1,3 -1,2 -1,3 -1,3 v 2 l -1,3 -1,3 -1,3 -1,3 -1,3 -1,3 -1,3 -1,4 -1,3 v 3 l -1,3 -1,4 -1,3 v 3 l -1,4 -1,4 -1,3 z m 43,-34 c -4,23 -27,38 -51,33 -24,-4 -40,-25 -36,-48 z m -63,-49 h 20 v 83 h -20 l -44,-44 z m 0,83 c -24,0 -44,-19 -44,-41 0,-23 20,-42 44,-42 z m 64,-289 -20,251 -88,-6 20,-251 44,-39 z m -88,-6 c 1,-23 23,-40 47,-39 24,2 43,22 41,45 z m 611,44 h -567 v -83 h 567 l 40,60 z m 0,-83 c 24,0 44,19 44,42 0,23 -20,41 -44,41 z m 766,324 v -302 h 88 v 302 l -44,42 z m 88,0 c 0,23 -20,42 -44,42 -24,0 -44,-19 -44,-42 z m -62,-41 h 18 v 83 h -18 l -43,-31 z m 0,83 c -25,0 -45,-19 -45,-42 0,-23 20,-41 45,-41 z m -138,-199 61,-60 v 0 l 6,5 5,5 4,5 5,5 5,5 5,5 4,5 5,6 4,6 4,5 4,6 5,6 4,6 3,7 4,6 4,6 4,7 3,6 4,7 3,7 3,7 4,7 3,7 3,7 3,8 3,7 2,8 3,7 3,8 2,8 3,8 2,8 -85,22 -2,-7 -2,-7 -3,-7 -2,-7 -2,-7 -3,-6 -2,-7 -3,-6 -2,-6 -3,-6 -3,-6 -2,-6 -3,-5 -3,-6 -3,-5 -3,-6 -3,-5 -3,-5 -3,-5 -3,-5 -3,-4 -4,-5 -3,-4 -3,-5 -4,-4 -3,-4 -4,-4 -3,-4 -4,-3 -3,-4 -4,-4 z m -125,-53 v -83 0 l 7,1 h 6 6 l 7,1 h 6 l 6,1 7,1 6,1 6,2 6,1 6,2 6,1 6,2 6,2 6,3 6,2 6,2 6,3 6,3 5,3 6,3 6,3 5,3 5,4 6,3 5,4 6,4 5,4 5,4 5,4 5,5 5,4 -61,60 -4,-3 -4,-4 -3,-3 -4,-3 -4,-3 -4,-3 -4,-2 -4,-3 -3,-2 -4,-3 -4,-2 -4,-2 -4,-2 -4,-2 -4,-1 -3,-2 -4,-2 -4,-1 -4,-1 -4,-2 -4,-1 -4,-1 -3,-1 h -4 l -4,-1 -4,-1 h -4 l -4,-1 h -4 -4 l -5,-1 z m -102,41 -64,-56 v 0 l 4,-4 4,-4 4,-4 5,-4 4,-3 5,-4 4,-3 5,-4 5,-3 4,-3 5,-2 5,-3 5,-3 6,-2 5,-3 5,-2 5,-2 6,-2 5,-2 6,-1 5,-2 6,-1 6,-1 5,-1 6,-1 6,-1 6,-1 5,-1 h 6 6 6 l 6,-1 v 83 h -4 l -4,1 h -4 -3 -4 l -4,1 h -3 l -4,1 -3,1 h -4 l -3,1 -4,1 -3,1 -3,1 -3,1 -3,2 -3,1 -3,1 -3,2 -3,1 -3,2 -3,1 -3,2 -3,2 -3,2 -2,2 -3,2 -3,2 -3,3 -2,2 -3,3 z m -65,131 -86,-17 v 0 l 1,-7 2,-6 2,-7 1,-6 2,-6 2,-6 2,-6 2,-6 2,-6 2,-6 3,-6 2,-5 3,-6 2,-5 3,-6 2,-5 3,-5 3,-6 3,-5 3,-5 3,-5 3,-5 3,-5 3,-4 4,-5 3,-5 4,-4 3,-5 4,-4 4,-4 4,-4 4,-4 64,56 -2,3 -3,3 -3,3 -2,3 -3,3 -2,3 -3,3 -2,4 -2,3 -3,3 -2,4 -2,4 -2,3 -3,4 -2,4 -2,4 -2,4 -2,5 -2,4 -2,4 -2,5 -1,4 -2,5 -2,5 -1,5 -2,5 -2,5 -1,5 -2,5 -1,5 -1,6 z m -21,190 h -88 v 0 -7 -7 -6 -7 -6 -7 l 1,-6 v -7 -6 l 1,-7 v -7 l 1,-6 v -7 l 1,-6 1,-7 v -6 l 1,-6 1,-7 1,-6 1,-7 1,-6 1,-7 1,-6 1,-6 1,-7 1,-6 1,-7 1,-6 2,-6 1,-7 1,-6 2,-6 86,17 -1,6 -1,6 -1,6 -2,5 -1,6 -1,6 -1,6 -1,6 -1,6 -1,5 -1,6 -1,6 v 6 l -1,6 -1,6 -1,6 v 6 l -1,6 v 5 l -1,6 v 6 l -1,6 v 6 l -1,6 v 6 6 6 l -1,6 v 6 7 6 z m 23,206 -86,20 v 0 l -1,-7 -2,-6 -1,-6 -2,-7 -1,-6 -2,-7 -1,-6 -1,-7 -1,-6 -1,-7 -2,-7 -1,-7 -1,-6 v -7 l -1,-7 -1,-7 -1,-7 -1,-8 v -7 l -1,-7 v -7 l -1,-8 v -7 l -1,-8 v -7 l -1,-8 v -7 -8 -8 -8 -7 -8 h 88 v 7 8 7 7 l 1,7 v 7 7 7 l 1,7 v 7 l 1,7 v 7 l 1,6 v 7 l 1,6 1,7 1,6 v 7 l 1,6 1,6 1,6 1,6 1,6 1,6 1,6 1,6 1,6 2,6 1,5 1,6 2,5 z m 65,115 -58,62 v 0 l -4,-3 -4,-4 -4,-3 -4,-4 -4,-4 -4,-4 -4,-4 -3,-4 -4,-5 -3,-4 -4,-4 -3,-5 -3,-5 -3,-4 -3,-5 -3,-5 -3,-5 -3,-5 -2,-5 -3,-6 -2,-5 -3,-5 -2,-6 -2,-6 -3,-5 -2,-6 -2,-6 -2,-6 -2,-6 -1,-6 -2,-6 -2,-6 86,-20 1,5 2,5 1,5 2,5 2,5 1,4 2,5 2,5 1,4 2,4 2,4 2,4 2,4 2,4 2,4 2,3 2,4 2,3 2,4 2,3 2,3 3,3 2,3 2,2 3,3 2,3 2,2 3,3 2,2 3,2 2,2 z m 99,33 v 83 0 h -5 -6 -5 l -5,-1 h -6 l -5,-1 h -6 l -5,-1 -5,-1 -5,-1 -6,-1 -5,-1 -5,-2 -5,-1 -5,-2 -5,-1 -5,-2 -5,-2 -5,-2 -5,-2 -4,-2 -5,-2 -5,-3 -4,-2 -5,-3 -4,-2 -5,-3 -4,-3 -4,-3 -5,-3 -4,-3 -4,-4 58,-62 2,2 3,2 3,2 2,2 3,1 3,2 3,2 2,1 3,2 3,1 3,2 3,1 3,1 3,1 3,2 3,1 3,1 3,1 h 3 l 4,1 3,1 3,1 h 3 l 4,1 h 3 l 4,1 h 3 l 4,1 h 3 4 4 z m 43,-5 21,80 h 1 -2 l -2,1 h -2 l -2,1 h -2 l -2,1 h -2 l -2,1 h -2 -2 l -2,1 h -2 -2 l -2,1 h -2 -2 -2 l -3,1 h -2 -2 -1 -3 -2 l -1,1 h -3 -2 -2 -2 -2 -2 -1 -3 v -83 h 2 1 1 2 1 1 1 2 1 1 l 1,-1 h 2 1 1 2 1 1 l 2,-1 h 1 1 2 1 l 1,-1 h 2 1 1 l 1,-1 h 2 1 l 1,-1 h 2 1 z m -1,0 c 24,-6 48,7 54,29 7,22 -7,45 -31,51 z m 23,21 h 89 l -26,37 -2,1 -2,1 -2,1 -2,1 h -2 l -2,1 -2,1 -2,1 -1,1 h -3 l -2,1 -2,1 -1,1 h -2 l -3,1 -1,1 h -2 l -2,1 -3,1 h -2 l -1,1 -2,1 h -3 l -2,1 h -1 l -3,1 -2,1 h -2 l -2,1 h -2 l -2,1 h -2 l -21,-80 1,-1 h 2 1 l 1,-1 h 2 l 1,-1 h 2 1 l 2,-1 h 1 l 2,-1 h 1 l 2,-1 h 1 l 1,-1 h 2 l 2,-1 h 1 l 2,-1 h 1 l 2,-1 h 1 l 2,-1 1,-1 h 2 l 1,-1 h 2 l 1,-1 2,-1 h 1 l 2,-1 2,-1 z m 26,-38 c 22,-10 48,-1 58,20 11,21 1,45 -21,55 z m 63,-140 v 178 h -89 v -178 0 z m -92,-52 83,-28 v 0 l 1,2 1,2 v 2 l 1,2 1,3 v 2 2 l 1,2 v 2 2 l 1,2 v 2 3 l 1,2 v 2 3 2 3 l 1,2 v 3 2 3 3 3 2 3 l 1,3 v 3 4 3 3 3 h -89 v -3 -3 -3 -2 -3 -3 -2 -3 -2 -3 -2 l -1,-2 v -2 -2 -2 -2 -1 -2 l -1,-2 v -1 -1 -1 -2 -1 h -1 v -1 -1 0 -1 0 0 0 z m 0,-1 c -8,-21 4,-45 27,-52 23,-8 48,3 56,25 z m -8,-7 52,-67 h -1 l 2,1 1,1 2,1 1,1 2,1 2,2 1,1 2,1 1,1 2,2 1,1 1,1 2,2 1,1 1,1 2,2 1,1 1,2 2,2 1,1 1,2 1,1 1,2 1,1 1,2 1,2 1,2 1,1 1,2 1,2 1,2 v 2 l -83,28 v 0 0 0 0 0 0 -1 0 0 0 0 h -1 v -1 0 0 0 0 l -1,-1 v 0 0 h -1 v -1 0 h -1 v -1 h -1 v -1 0 h -1 l -1,-1 v 0 z m 0,0 c -20,-13 -25,-39 -11,-57 14,-19 42,-24 62,-10 z m -18,-4 v -83 0 h 2 2 3 2 2 3 l 2,1 h 2 2 l 3,1 h 2 2 l 2,1 h 3 l 2,1 h 2 l 2,1 3,1 2,1 h 2 l 2,1 2,1 2,1 2,1 3,1 2,1 2,1 2,1 2,1 2,1 2,2 2,1 -52,67 h -1 v 0 -1 h -1 v 0 h -1 v 0 -1 h -1 v 0 h -1 v 0 h -1 v -1 h -1 v 0 h -1 v 0 h -1 v 0 l -1,-1 h -1 v 0 h -1 -1 v 0 h -1 -1 -1 -1 v 0 z m -19,-83 h 19 v 83 h -19 l -44,-42 z m 0,83 c -24,0 -44,-19 -44,-42 0,-23 20,-41 44,-41 z m 44,-64 v 22 h -88 v -22 l 44,-41 z m -88,0 c 0,-23 20,-41 44,-41 25,0 44,18 44,41 z m 394,42 h -350 v -83 h 350 l 44,41 z m 0,-83 c 24,0 44,18 44,41 0,23 -20,42 -44,42 z m -45,63 v -22 h 89 v 22 l -41,42 z m 89,0 c 0,23 -20,42 -44,42 -25,0 -45,-19 -45,-42 z m -75,47 -50,-68 v 0 l 2,-1 2,-2 3,-1 2,-1 2,-1 2,-1 2,-1 3,-1 2,-1 h 2 l 2,-1 3,-1 h 2 l 2,-1 3,-1 h 2 l 2,-1 h 3 l 2,-1 h 2 l 3,-1 h 2 3 l 2,-1 h 3 2 l 3,-1 h 3 2 l 3,-1 h 3 3 l 7,83 h -2 -2 -2 -2 l -2,1 h -2 -1 -2 l -2,1 h -1 -2 -1 l -2,1 h -1 -1 -2 l -1,1 h -1 -1 v 0 l -1,1 h -1 -1 v 0 h -1 v 1 0 h -1 v 0 0 0 h 1 z m 0,1 c -21,13 -48,8 -62,-11 -13,-19 -8,-45 12,-58 z m -8,13 -82,-29 -1,1 1,-2 v -2 l 1,-2 1,-2 1,-2 1,-1 1,-2 1,-2 1,-2 1,-2 1,-2 1,-2 1,-2 1,-1 1,-2 2,-2 1,-2 1,-1 2,-2 1,-1 1,-2 2,-2 1,-1 2,-2 1,-1 2,-2 2,-1 1,-1 2,-2 2,-1 2,-2 2,-1 50,68 v 1 0 0 0 0 0 h -1 v 0 0 1 0 h -1 v 0 0 1 0 h -1 v 1 0 l -1,1 v 0 1 0 l -1,1 v 1 0 l -1,1 v 1 0 l -1,1 v 1 1 z m 1,-1 c -8,22 -33,33 -56,26 -23,-7 -36,-31 -28,-53 z m -3,46 h -88 v 0 -3 -3 -3 -3 -2 -3 -3 -3 -2 -3 -2 -3 l 1,-2 v -2 -2 -3 -2 -2 l 1,-2 v -2 -2 -2 l 1,-2 v -2 -2 l 1,-2 v -2 l 1,-2 v -2 l 1,-2 1,-2 1,-2 82,29 v 0 l 1,-1 v 0 0 0 0 l -1,1 v 1 0 1 1 1 2 1 l -1,1 v 2 1 2 2 2 2 2 2 l -1,2 v 2 3 2 3 2 3 3 z m -88,178 v -178 h 88 v 178 l -22,36 z m 88,0 c 0,23 -20,41 -44,41 -24,0 -44,-18 -44,-41 z m -176,95 -23,-80 v 0 l 5,-1 4,-1 4,-2 4,-1 5,-1 4,-1 4,-2 4,-1 5,-1 4,-2 4,-1 4,-1 4,-2 5,-2 4,-1 4,-2 4,-1 4,-2 4,-2 4,-1 5,-2 4,-2 4,-2 4,-1 4,-2 4,-2 4,-2 4,-2 4,-2 4,-2 4,-2 4,-2 44,72 -5,2 -5,3 -4,2 -5,2 -4,3 -5,2 -5,2 -5,2 -4,2 -5,2 -5,2 -4,2 -5,2 -5,2 -5,2 -5,2 -4,2 -5,2 -5,2 -5,1 -5,2 -5,2 -4,1 -5,2 -5,1 -5,2 -5,1 -5,2 -5,1 -5,1 -5,2 z m 0,0 c -23,6 -48,-7 -54,-29 -6,-22 8,-45 31,-51 z m -166,20 v -83 0 h 5 5 4 5 4 l 5,-1 h 5 4 5 l 4,-1 h 5 4 l 5,-1 h 4 l 5,-1 h 4 l 5,-1 h 4 l 5,-1 4,-1 h 5 l 4,-1 4,-1 5,-1 4,-1 h 4 l 5,-1 4,-1 4,-1 5,-1 4,-1 4,-1 23,80 -5,1 -5,1 -5,2 -5,1 -5,1 -5,1 -5,1 -5,1 -5,1 -5,1 h -6 l -5,1 -5,1 -5,1 h -5 l -5,1 -6,1 h -5 l -5,1 h -5 l -5,1 h -6 -5 l -5,1 h -6 -5 -5 l -5,1 h -6 -5 -5 z m -190,-38 41,-74 v 1 l 4,1 3,2 4,1 4,2 3,1 4,2 4,1 4,2 4,1 4,1 5,1 4,2 4,1 5,1 4,1 5,1 h 5 l 4,1 5,1 5,1 h 5 l 5,1 5,1 h 6 l 5,1 h 5 6 l 5,1 h 6 6 5 6 v 83 h -6 -7 -7 l -7,-1 h -6 -7 l -6,-1 h -7 l -6,-1 -6,-1 h -7 l -6,-1 -6,-1 -6,-1 -6,-1 -6,-1 -6,-1 -6,-2 -6,-1 -5,-1 -6,-2 -6,-2 -5,-1 -6,-2 -5,-2 -6,-2 -5,-2 -5,-2 -6,-2 -5,-2 -5,-3 z m 0,0 c -21,-11 -30,-36 -18,-56 11,-20 38,-28 59,-17 z m -131,-96 66,-56 v 0 l 2,3 3,3 3,3 3,3 3,3 3,3 4,3 3,3 3,2 3,3 3,3 3,2 4,3 3,2 3,3 3,2 4,3 3,2 4,2 3,3 3,2 4,2 3,2 4,3 3,2 4,2 4,2 3,2 4,2 4,2 3,2 4,1 -41,74 -4,-2 -5,-3 -4,-2 -5,-2 -5,-3 -4,-2 -4,-3 -5,-3 -4,-2 -5,-3 -4,-3 -4,-3 -5,-3 -4,-2 -4,-3 -4,-3 -4,-3 -4,-3 -4,-4 -4,-3 -4,-3 -4,-3 -4,-4 -4,-3 -4,-3 -3,-4 -4,-3 -4,-4 -4,-3 -3,-4 -4,-4 z m -89,-134 82,-31 v 0 l 2,4 1,4 2,3 2,4 2,4 2,3 1,4 2,4 2,3 2,4 2,3 2,4 3,3 2,4 2,3 2,4 2,3 3,3 2,4 3,3 2,4 3,3 2,3 3,3 2,4 3,3 3,3 2,3 3,3 3,3 3,3 3,3 -66,56 -4,-4 -3,-4 -4,-3 -3,-4 -3,-4 -4,-4 -3,-4 -3,-4 -3,-4 -3,-4 -3,-4 -3,-4 -3,-4 -3,-4 -3,-4 -3,-4 -3,-5 -2,-4 -3,-4 -3,-4 -2,-5 -3,-4 -2,-4 -3,-5 -2,-4 -2,-5 -2,-4 -3,-5 -2,-4 -2,-5 -2,-4 z m 0,0 c -9,-21 2,-45 24,-54 23,-9 49,2 58,23 z m -40,-211 h 88 v 0 7 6 6 l 1,6 v 6 7 l 1,6 v 6 l 1,5 1,6 v 6 l 1,6 1,6 1,6 1,5 1,6 1,5 1,6 1,5 1,6 2,5 1,6 2,5 1,5 2,6 2,5 1,5 2,5 2,5 2,5 2,5 2,5 -82,31 -3,-6 -2,-6 -2,-6 -3,-6 -2,-6 -2,-7 -2,-6 -2,-6 -2,-6 -1,-7 -2,-6 -2,-7 -1,-6 -2,-7 -1,-6 -1,-7 -2,-6 -1,-7 -1,-7 -1,-6 -1,-7 v -7 l -1,-7 -1,-7 v -6 l -1,-7 v -7 l -1,-7 v -7 -7 -7 z m 123,-352 69,52 v 0 l -6,7 -6,8 -6,8 -6,8 -6,8 -5,8 -5,9 -5,8 -5,8 -4,9 -5,9 -4,9 -4,8 -4,10 -3,9 -4,9 -3,9 -3,10 -2,9 -3,10 -2,10 -3,10 -1,10 -2,11 -2,10 -1,11 -1,10 -1,11 -1,11 v 11 l -1,11 v 11 h -88 v -12 -13 l 1,-13 1,-12 1,-12 1,-13 2,-12 1,-12 2,-12 3,-11 2,-12 3,-12 3,-11 3,-12 4,-11 3,-11 4,-11 5,-11 4,-11 5,-10 5,-11 5,-10 5,-10 6,-11 6,-10 6,-9 7,-10 6,-10 7,-9 7,-10 8,-9 z m 0,0 c 16,-18 43,-21 62,-7 20,15 23,41 7,59 z m 322,-149 v 83 0 h -10 -9 l -10,1 -9,1 -9,1 -9,1 -9,2 -8,1 -9,2 -8,2 -9,3 -8,2 -8,3 -8,3 -8,3 -8,4 -7,4 -8,4 -8,4 -7,4 -8,5 -7,5 -7,5 -7,5 -7,6 -7,6 -7,6 -7,7 -7,6 -7,7 -6,7 -7,8 -69,-52 8,-9 8,-9 8,-8 9,-8 8,-8 9,-8 8,-7 9,-8 9,-6 10,-7 9,-6 10,-6 9,-6 10,-5 10,-6 10,-4 10,-5 11,-4 10,-4 11,-4 10,-3 11,-3 11,-3 11,-3 12,-2 11,-2 11,-1 12,-2 11,-1 h 12 l 12,-1 z m 106,11 -20,81 v 0 l -3,-1 h -2 l -2,-1 h -3 l -2,-1 h -3 l -2,-1 h -2 l -3,-1 h -3 -2 l -3,-1 h -2 -3 l -2,-1 h -3 -3 -3 l -2,-1 h -3 -3 -3 -3 -2 l -3,-1 h -3 -3 -3 -3 -3 -3 -3 v -83 h 3 4 3 4 4 3 4 l 3,1 h 4 3 4 3 l 3,1 h 4 3 l 4,1 h 3 3 l 3,1 h 4 l 3,1 h 3 l 4,1 h 3 l 3,1 h 3 l 3,1 h 3 l 4,1 3,1 h 3 l 3,1 z m 1,0 c 24,6 38,28 32,50 -6,23 -30,36 -53,31 z m 84,32 -38,74 v 0 l -3,-1 -4,-1 -3,-2 -2,-1 -3,-1 -3,-1 -3,-2 -3,-1 -2,-1 -3,-1 -2,-1 -3,-1 -2,-1 -2,-1 -3,-1 h -2 l -2,-1 -2,-1 -2,-1 h -2 l -2,-1 -1,-1 h -2 l -1,-1 h -2 -1 l -2,-1 h -1 l -1,-1 h -1 -1 -1 l 20,-81 h 3 l 2,1 2,1 h 2 l 2,1 h 2 l 3,1 2,1 2,1 h 3 l 2,1 2,1 3,1 2,1 3,1 2,1 3,1 3,1 2,1 3,1 3,1 3,1 3,1 3,2 3,1 3,1 3,2 3,1 3,1 3,2 4,1 z m 0,0 c 22,10 31,34 21,55 -11,21 -37,29 -59,19 z m 43,19 v 83 0 h -4 -4 l -2,-1 h -3 l -2,-1 h -2 l -2,-1 h -2 l -2,-1 h -2 l -2,-1 -2,-1 h -2 l -2,-1 -2,-1 -2,-1 -3,-1 -2,-1 h -2 l -3,-1 -2,-1 -3,-2 -2,-1 -3,-1 -3,-1 -3,-1 -3,-1 -3,-2 -3,-1 -3,-2 -3,-1 -3,-2 38,-74 3,1 3,2 3,1 3,1 3,1 2,1 3,2 3,1 2,1 2,1 2,1 h 3 l 1,1 2,1 2,1 h 2 l 1,1 h 2 l 1,1 h 2 l 1,1 h 1 v 0 h 1 v 1 h 1 v 0 0 h -1 l -1,-1 h -2 z m -5,0 65,57 v 0 l -2,1 -1,1 -1,2 -2,1 -1,1 -2,2 -2,1 -1,1 -2,1 -1,1 -2,1 -2,2 -2,1 -2,1 -1,1 h -2 l -2,1 -2,1 -2,1 -2,1 h -3 l -1,1 -3,1 h -2 l -2,1 h -2 -2 l -2,1 h -3 -2 -2 -2 v -83 h -1 v 0 0 h -1 v 0 h -1 v 0 0 l -1,1 v 0 0 h -1 v 0 0 h -1 v 0 0 0 0 1 0 h -1 v 0 h 1 v -1 1 -1 0 0 0 h 1 z m 56,-62 v 83 l 42,-31 -1,3 v 2 l -1,3 -1,2 -1,3 v 2 l -1,2 -1,3 -1,2 -1,2 -1,2 -1,2 v 3 l -1,2 -1,2 -1,2 -1,2 -1,2 -1,2 -1,2 -1,2 -1,1 -2,2 -1,2 -1,2 -1,2 -2,2 -1,2 -2,2 -1,1 -2,2 -1,2 -65,-57 v 1 0 -1 0 0 0 0 l 1,-1 v 0 -1 l 1,-1 v 0 l 1,-1 v -1 -1 l 1,-1 1,-1 v -1 l 1,-1 v -2 l 1,-1 v -1 l 1,-2 v -1 l 1,-2 v -2 l 1,-1 1,-2 v -2 l 1,-2 v -2 l 1,-2 z m -43,30 c 6,-22 31,-35 54,-29 24,7 38,29 31,51 z m 61,53 h -18 v -83 h 18 l 44,41 z m 0,-83 c 24,0 44,19 44,41 0,23 -20,42 -44,42 z m 447,919 v -22 h 88 v 22 l -44,42 z m 88,0 c 0,23 -19,42 -44,42 -24,0 -44,-19 -44,-42 z m -418,-41 h 374 v 83 h -374 l -44,-42 z m 0,83 c -25,0 -44,-19 -44,-42 0,-23 19,-41 44,-41 z m 44,-64 v 22 h -88 v -22 l 44,-41 z m -88,0 c 0,-23 19,-41 44,-41 24,0 44,18 44,41 z m 68,42 h -24 v -83 h 24 v 0 z m 25,-89 50,68 1,-1 -2,1 -2,2 -2,1 -2,1 -2,2 -3,1 -2,1 -2,1 -2,1 -3,1 -2,1 -2,1 h -3 l -2,1 -3,1 -2,1 h -3 l -2,1 h -2 l -3,1 h -3 l -2,1 h -2 -3 l -2,1 h -3 -3 -2 -3 -2 l -3,1 h -2 v -83 h 1 1 l 1,-1 h 1 2 1 1 1 1 1 1 l 1,-1 v 0 h 1 1 1 v 0 l 1,-1 h 1 v 0 h 1 v 0 l 1,-1 v 0 h 1 v 0 h 1 v -1 0 h 1 v 0 -1 z m -2,0 c 20,-13 48,-10 62,9 15,18 11,44 -9,58 z m 6,-11 84,28 v -1 1 l -1,2 -1,2 -1,2 v 2 l -1,2 -1,1 -1,2 -1,2 -1,2 -1,2 -1,1 -1,2 -1,2 -1,1 -1,2 -1,2 -1,1 -1,2 -2,2 -1,1 -2,2 -1,1 -1,2 -2,1 -2,2 -1,1 -2,2 -2,1 -1,1 -2,1 -2,2 -50,-68 h -1 v 0 0 0 0 0 0 0 0 0 0 0 h 1 v -1 0 0 0 -1 h 1 v 0 -1 0 -1 h 1 v -1 0 -1 l 1,-1 v 0 -1 l 1,-1 v 0 z m 0,2 c 7,-22 32,-34 55,-28 24,7 37,31 29,53 z m 4,-68 h 88 v 0 4 4 4 4 4 3 4 3 4 l -1,3 v 3 3 4 3 2 l -1,3 v 3 3 2 l -1,3 v 2 3 2 l -1,2 v 3 l -1,2 v 2 2 l -1,3 -1,2 v 2 l -1,3 -84,-28 v 1 0 0 -1 0 -1 l 1,-1 v -1 -1 -1 -2 l 1,-2 v -1 -2 -2 -2 -3 l 1,-2 v -3 -2 -3 -3 -3 -3 -3 -3 -4 l 1,-3 v -4 -3 -4 z m 88,-566 v 566 h -88 v -566 0 z m -92,-69 84,-27 v 1 l 1,2 1,2 v 3 l 1,2 v 2 l 1,2 v 3 2 l 1,2 v 3 2 l 1,3 v 2 3 3 3 l 1,2 v 3 3 4 3 3 l 1,4 v 3 4 3 4 4 4 4 4 4 h -88 v -4 -4 -3 -4 l -1,-4 v -3 -4 -3 -3 -3 -3 -3 -2 -3 l -1,-3 v -2 -2 -2 -2 l -1,-2 v -2 -2 -1 -2 -1 l -1,-1 v -1 0 -1 0 0 0 z m 0,-1 c -8,-22 5,-45 28,-52 24,-7 49,5 56,27 z m -8,-9 53,-66 v 0 l 2,1 1,1 2,2 1,1 2,1 1,1 2,2 2,1 1,1 1,2 2,1 1,2 1,1 2,2 1,1 1,2 2,1 1,2 1,1 1,2 1,2 1,1 1,2 1,2 1,1 1,2 1,2 1,2 1,2 v 1 l 1,2 1,2 -84,27 v -1 0 0 0 0 -1 h -1 v 0 0 -1 0 0 0 l -1,-1 v 0 0 0 -1 h -1 v 0 -1 h -1 v 0 -1 h -1 v 0 0 l -1,-1 v 0 l -1,-1 v 0 h -1 z m 0,1 c -19,-14 -24,-40 -9,-58 15,-19 42,-23 62,-9 z m -21,-5 v -83 0 h 2 3 l 2,1 h 3 2 2 3 2 l 3,1 h 2 3 l 2,1 h 2 l 3,1 h 2 l 3,1 2,1 h 2 l 3,1 2,1 2,1 3,1 2,1 2,1 2,1 3,1 2,1 2,1 2,1 2,2 2,1 2,1 -53,66 v 0 h -1 v 0 0 0 h -1 v -1 0 h -1 v 0 0 h -1 v -1 h -1 v 0 h -1 -1 v 0 h -1 l -1,-1 h -1 -1 v 0 h -1 -1 -1 -1 -2 l -1,-1 h -1 -1 z m -24,-83 h 24 v 83 h -24 l -44,-41 z m 0,83 c -25,0 -44,-18 -44,-41 0,-23 19,-42 44,-42 z m 44,-63 v 22 h -88 v -22 l 44,-42 z m -88,0 c 0,-23 19,-42 44,-42 24,0 44,19 44,42 z m 418,41 h -374 v -83 h 374 l 44,42 z m 0,-83 c 25,0 44,19 44,42 0,23 -19,41 -44,41 z m -44,64 v -22 h 88 v 22 l -44,41 z m 88,0 c 0,23 -19,41 -44,41 -24,0 -44,-18 -44,-41 z m -68,-42 h 24 v 83 h -24 v 0 z m -24,89 -51,-68 -1,1 2,-1 2,-2 3,-1 2,-1 2,-2 2,-1 2,-1 3,-1 2,-1 2,-1 2,-1 3,-1 h 2 l 2,-1 3,-1 2,-1 h 3 l 2,-1 h 3 l 2,-1 h 3 l 2,-1 h 3 2 l 3,-1 h 2 3 2 3 l 2,-1 h 3 2 v 83 h -1 -1 -1 l -1,1 h -1 -2 v 0 h -2 -1 v 0 h -1 -1 l -1,1 h -1 -1 v 0 h -1 l -1,1 v 0 h -1 v 0 h -1 v 1 h -1 v 0 h -1 v 0 l -1,1 v 0 0 h -1 v 1 z m 1,0 c -20,13 -47,9 -62,-9 -14,-18 -10,-44 9,-58 z m -6,11 -84,-28 v 1 l 1,-2 1,-2 v -2 l 1,-2 1,-2 1,-1 1,-2 v -2 l 1,-2 1,-1 1,-2 1,-2 1,-2 1,-1 1,-2 2,-1 1,-2 1,-2 1,-1 1,-2 2,-1 1,-2 1,-1 2,-2 1,-1 2,-2 2,-1 1,-2 2,-1 1,-1 2,-1 2,-2 51,68 v 0 0 0 0 0 0 0 0 0 0 0 0 1 0 0 h -1 v 1 0 0 l -1,1 v 0 1 0 l -1,1 v 0 1 l -1,1 v 0 1 1 h -1 v 1 z m 0,-1 c -8,22 -33,34 -56,26 -23,-7 -36,-31 -28,-52 z m -4,67 h -88 v 0 -4 -4 -4 -4 -4 -3 -4 -3 l 1,-4 v -3 -3 -3 -4 -3 -2 l 1,-3 v -3 -3 -2 l 1,-3 v -2 -3 -2 l 1,-2 v -3 l 1,-2 v -2 l 1,-2 v -3 l 1,-2 v -2 l 1,-3 84,28 v -1 0 0 0 1 1 l -1,1 v 1 1 1 2 1 l -1,2 v 2 2 2 3 2 l -1,3 v 2 3 3 3 3 3 3 4 3 4 l -1,3 v 4 z m -88,566 v -566 h 88 v 566 0 z m 92,69 -83,27 h -1 v -3 l -1,-2 -1,-2 v -3 l -1,-2 v -2 l -1,-2 v -3 -2 l -1,-3 v -2 -3 l -1,-2 v -3 -3 -3 l -1,-2 v -3 -3 -4 -3 -3 -4 l -1,-3 v -4 -3 -4 -4 -4 -4 -4 -4 h 88 v 4 4 l 1,3 v 4 4 3 3 4 3 3 3 3 2 l 1,3 v 2 3 2 2 2 l 1,2 v 2 1 2 1 l 1,1 v 2 0 1 0 1 0 z m 0,0 c 8,22 -4,46 -28,53 -23,7 -48,-4 -56,-26 z m 9,10 -54,65 1,1 -2,-1 -2,-1 -1,-2 -2,-1 -1,-1 -2,-1 -1,-2 -2,-1 -2,-2 -1,-1 -1,-1 -2,-2 -1,-1 -1,-2 -2,-1 -1,-2 -1,-1 -1,-2 -1,-1 -2,-2 -1,-2 -1,-1 -1,-2 -1,-2 -1,-1 -1,-2 v -2 l -1,-2 -1,-1 -1,-2 -1,-2 v -2 l 83,-27 v 0 0 1 0 0 h 1 v 1 0 0 0 1 h 1 v 0 0 1 0 h 1 v 1 0 0 h 1 v 1 0 h 1 v 1 0 h 1 v 1 h 1 v 0 l 1,1 v 0 z m -1,-1 c 20,14 24,40 9,58 -14,19 -42,23 -61,9 z m 21,5 v 83 0 h -2 l -2,-1 h -3 -2 -3 -2 -3 l -2,-1 h -2 -3 l -2,-1 h -3 -2 l -2,-1 h -3 l -2,-1 -3,-1 h -2 l -2,-1 -3,-1 -2,-1 -2,-1 -2,-1 -3,-1 -2,-1 -2,-1 -2,-1 -3,-1 -2,-1 -2,-2 -2,-1 -2,-2 54,-65 v 0 0 0 h 1 v 0 0 1 h 1 v 0 h 1 v 0 0 l 1,1 v 0 h 1 1 v 0 h 1 v 0 l 1,1 h 1 1 1 1 1 1 1 1 1 l 1,1 h 1 z m 24,83 h -24 v -83 h 24 l 44,41 z m 0,-83 c 25,0 44,18 44,41 0,23 -19,42 -44,42 z m -97,-1044 -70,50 v 1 l -1,-1 -1,-1 v -1 l -1,-1 -1,-1 h -1 v -1 l -1,-1 h -1 v -1 h -1 -1 v -1 h -1 v 0 l -1,-1 v 0 h -1 v 0 l -1,-1 v 0 h -1 v 0 h -1 v 0 h -1 l -1,-1 v 0 h -1 v 0 h -1 -1 v -83 h 3 3 l 4,1 h 3 3 l 4,1 h 3 l 3,1 3,1 3,1 4,1 3,1 3,1 3,1 3,2 3,1 2,1 3,2 3,2 3,1 2,2 3,2 3,2 2,2 3,2 2,2 2,2 2,2 3,3 2,2 2,2 z m 0,0 c 15,18 11,44 -8,58 -19,14 -47,11 -62,-7 z m 32,92 h -89 v 0 -2 -2 -1 -2 -2 -1 -2 l -1,-1 v -2 -1 -1 l -1,-2 v -1 -1 l -1,-1 v -2 l -1,-1 v -1 l -1,-1 v -2 l -1,-1 v -1 l -1,-1 v -1 l -1,-1 -1,-1 v -1 l -1,-1 -1,-1 v -2 l -1,-1 -1,-1 70,-50 2,2 2,3 2,2 2,3 1,2 2,3 2,3 1,2 2,3 1,3 1,3 2,2 1,3 1,3 1,3 1,3 1,3 1,3 1,3 v 3 l 1,3 1,3 v 3 l 1,3 v 3 l 1,3 v 3 3 l 1,3 v 3 3 z m -32,92 -70,-51 v 0 l 1,-1 1,-1 v -1 l 1,-1 1,-1 v -1 l 1,-1 1,-2 v -1 l 1,-1 v -1 l 1,-1 v -1 l 1,-2 v -1 l 1,-1 v -1 l 1,-1 v -2 -1 l 1,-2 v -1 -1 -2 l 1,-1 v -2 -1 -2 -1 -2 -2 -1 h 89 v 3 3 3 l -1,3 v 3 3 l -1,3 v 3 l -1,3 v 3 l -1,4 -1,3 v 2 l -1,3 -1,3 -1,3 -1,3 -1,3 -1,3 -1,3 -2,3 -1,2 -1,3 -2,3 -1,2 -2,3 -2,3 -1,2 -2,3 -2,2 -2,3 -2,2 z m 0,-1 c -15,19 -42,22 -62,8 -19,-14 -23,-40 -8,-58 z m -90,44 v -83 0 h 1 1 v 0 h 1 v 0 h 1 1 v -1 h 1 v 0 h 1 v 0 h 1 v -1 h 1 v 0 h 1 v -1 h 1 v 0 l 1,-1 h 1 v -1 h 1 l 1,-1 v 0 l 1,-1 1,-1 1,-1 v -1 h 1 l 1,-1 70,51 -2,2 -2,2 -2,3 -3,2 -2,2 -2,2 -2,2 -3,2 -2,2 -3,2 -3,2 -2,2 -3,2 -3,1 -3,2 -2,1 -3,2 -3,1 -3,1 -3,1 -3,1 -4,1 -3,1 -3,1 -3,1 h -3 l -4,1 h -3 l -3,1 h -4 -3 z m -90,-44 70,-50 v 0 l 1,1 h 1 v 1 l 1,1 1,1 1,1 v 0 l 1,1 h 1 v 1 h 1 l 1,1 v 0 h 1 v 1 h 1 v 0 h 1 v 1 h 1 v 0 h 1 v 0 h 1 v 1 h 1 1 v 0 h 1 1 v 0 h 1 v 83 h -3 -3 -4 l -3,-1 h -3 l -4,-1 h -3 l -3,-1 -3,-1 -3,-1 -3,-1 -4,-1 -3,-1 -3,-1 -3,-1 -3,-2 -2,-1 -3,-2 -3,-1 -3,-2 -2,-2 -3,-2 -3,-2 -2,-2 -2,-2 -3,-2 -2,-2 -2,-2 -3,-2 -2,-3 -2,-2 -2,-2 z m 0,1 c -15,-18 -11,-45 8,-59 19,-14 47,-11 62,8 z m -32,-92 h 89 v 0 1 2 2 1 2 1 2 l 1,1 v 2 1 1 l 1,2 v 1 2 l 1,1 v 1 l 1,1 v 1 l 1,2 v 1 l 1,1 v 1 l 1,1 v 1 l 1,2 1,1 v 1 l 1,1 1,1 1,1 v 1 l 1,1 -70,50 -2,-2 -2,-3 -2,-2 -1,-3 -2,-2 -2,-3 -1,-3 -2,-2 -1,-3 -2,-3 -1,-2 -1,-3 -2,-3 -1,-3 -1,-3 -1,-3 -1,-3 -1,-3 -1,-3 v -2 l -1,-3 -1,-4 v -3 l -1,-3 v -3 l -1,-3 v -3 -3 -3 l -1,-3 v -3 z m 32,-92 70,51 v -1 l -1,1 v 1 l -1,2 -1,1 -1,1 v 1 l -1,1 -1,1 v 1 l -1,1 v 1 l -1,1 v 2 l -1,1 v 1 l -1,1 v 1 l -1,2 v 1 1 l -1,2 v 1 1 2 l -1,1 v 2 1 2 2 1 2 2 h -89 v -4 -3 l 1,-3 v -3 -3 -3 l 1,-3 v -3 l 1,-3 v -3 l 1,-3 1,-3 v -3 l 1,-3 1,-3 1,-3 1,-3 1,-3 1,-3 2,-3 1,-2 1,-3 2,-3 1,-3 2,-2 1,-3 2,-3 2,-2 1,-3 2,-2 2,-3 z m 0,0 c 15,-18 43,-22 62,-8 19,14 23,40 8,58 z m 90,-44 v 83 0 h -1 v 0 h -1 -1 v 0 l -1,1 h -1 v 0 h -1 v 0 h -1 v 0 l -1,1 v 0 0 h -1 l -1,1 v 0 h -1 v 1 h -1 -1 v 1 h -1 l -1,1 v 1 h -1 l -1,1 -1,1 v 1 l -1,1 -1,1 -70,-51 2,-3 2,-2 2,-2 3,-3 2,-2 2,-2 3,-2 2,-2 2,-2 3,-2 3,-2 2,-2 3,-1 3,-2 3,-2 2,-1 3,-1 3,-2 3,-1 3,-1 4,-1 3,-1 3,-1 3,-1 3,-1 h 3 l 4,-1 h 3 3 l 4,-1 h 3 z"
   id="path40"
   inkscape:connector-curvature="0"
   style="fill:#2b2a29;fill-rule:nonzero" />
    <path
   id="path42"
   class="fil8"
   d="m 3197,1794 -422,810 h 137 c 64,0 109,-5 135,-15 42,-15 78,-43 109,-84 30,-40 51,-95 63,-164 h 20 l -29,311 h -657 l 423,-812 h -107 c -41,0 -69,2 -82,5 -24,5 -48,16 -69,32 -22,17 -40,38 -55,65 -14,27 -25,61 -33,103 h -20 l 20,-251 z m 810,-20 v 302 h -18 c -24,-82 -60,-144 -107,-187 -48,-43 -99,-64 -156,-64 -54,0 -98,18 -134,54 -36,36 -61,86 -76,150 -15,65 -22,131 -22,199 0,82 8,154 24,216 16,62 43,107 79,136 36,29 79,44 128,44 18,0 36,-3 54,-7 18,-4 36,-11 55,-19 v -178 c 0,-34 -2,-56 -5,-66 -4,-10 -12,-19 -24,-27 -12,-9 -27,-13 -44,-13 h -19 v -22 h 350 v 22 c -27,2 -46,7 -56,13 -10,7 -19,18 -24,34 -3,8 -5,28 -5,59 v 178 c -46,24 -94,42 -143,55 -50,12 -101,18 -155,18 -68,0 -124,-11 -169,-33 -45,-22 -85,-51 -119,-87 -35,-36 -62,-77 -81,-122 -25,-58 -37,-123 -37,-195 0,-129 38,-237 114,-326 76,-89 172,-134 287,-134 36,0 68,4 96,10 16,4 41,13 76,29 35,16 55,24 62,24 9,0 19,-5 27,-13 9,-9 16,-25 24,-50 z m 491,856 v 22 h -374 v -22 h 24 c 20,0 37,-4 50,-13 9,-6 16,-17 21,-31 4,-10 6,-37 6,-80 v -566 c 0,-44 -2,-72 -6,-83 -4,-11 -12,-20 -23,-29 -12,-8 -28,-12 -48,-12 h -24 v -22 h 374 v 22 h -24 c -20,0 -37,4 -49,13 -9,6 -17,16 -22,31 -4,10 -6,37 -6,80 v 566 c 0,44 2,72 6,83 4,11 12,20 24,29 12,8 28,12 47,12 z M 4311,1543 c 22,0 40,9 55,27 15,19 23,41 23,67 0,26 -8,48 -23,66 -15,18 -33,27 -55,27 -21,0 -40,-9 -55,-27 -15,-18 -23,-40 -23,-66 0,-26 8,-48 23,-67 15,-18 34,-27 55,-27 z"
   inkscape:connector-curvature="0"
   style="fill:#00a0e3;fill-rule:nonzero" />
   </g>
   <path
   class="fil5"
   d="m 1177,1454 h 249 c 82,0 150,65 150,145 v 761 c 0,80 -68,145 -150,145 h -249 c -82,0 -150,-65 -150,-145 v -761 c 0,-80 68,-145 150,-145 z m -79,848 395,-228 v -76 l -395,229 z m 395,-119 -360,216 c 20,19 47,30 77,30 h 172 c 61,0 111,-49 111,-108 z m -395,-65 395,-228 v -41 l -395,238 z m 0,-139 395,-238 v -67 l -395,238 z m 0,-176 368,-221 c -20,-23 -50,-37 -84,-37 h -172 c -62,0 -112,48 -112,107 z"
   id="path46"
   inkscape:connector-curvature="0"
   style="fill:#2b2a29" />
  </g>
  
  
 </g>
</svg>